<?xml version="1.0" encoding="UTF-8"?>
<svg xmlns="http://www.w3.org/2000/svg" viewBox="-4 -4 52 49">
  <rect x="-4" y="-4" width="52" height="49" rx="10" fill="#1a1a2e"/>
  <path fill="#fff" d="M42.66,0h-26.35C5.34,0,0,3.23,0,9.87v21.42c0,6.46,5.16,9.59,15.76,9.59h26.81c1.22,0,1.76-.61,1.76-1.99,0-1.8-.94-2.03-1.76-2.03H15.99c-7.08,0-10.68-1.97-10.68-5.85v-8.38h37.26c.82,0,1.67-.23,1.67-1.96,0-1.83-.89-2.06-1.67-2.06H5.31v-8.74c0-3.93,4.37-5.85,13.35-5.85h24c.82,0,1.67-.23,1.67-1.94C44.33.24,43.44,0,42.66,0Z"/>
</svg>
